<svg width="960" height="256" viewBox="0 0 960 256" fill="none" xmlns="http://www.w3.org/2000/svg" role="img" aria-label="PrismSplit logo">
  <defs>
    <linearGradient id="beam" x1="192" y1="128" x2="256" y2="128" gradientUnits="userSpaceOnUse">
      <stop offset="0" stop-color="#A3E635"/>
      <stop offset="1" stop-color="#22C55E"/>
    </linearGradient>
    <linearGradient id="prismTop" x1="80" y1="64" x2="144" y2="128" gradientUnits="userSpaceOnUse">
      <stop offset="0" stop-color="#4B5563"/>
      <stop offset="1" stop-color="#1F2937"/>
    </linearGradient>
    <linearGradient id="prismRight" x1="112" y1="128" x2="192" y2="128" gradientUnits="userSpaceOnUse">
      <stop offset="0" stop-color="#111827"/>
      <stop offset="1" stop-color="#374151"/>
    </linearGradient>
  </defs>

  <g transform="translate(32 32)">
    <path d="M16 128H72" stroke="#9CA3AF" stroke-width="14" stroke-linecap="round"/>
    <path d="M72 64H144L192 128L144 192H72L24 128L72 64Z" fill="#111827"/>
    <path d="M72 64L112 128L72 192L24 128L72 64Z" fill="#1F2937"/>
    <path d="M72 64H144L112 128L72 64Z" fill="url(#prismTop)"/>
    <path d="M72 192L112 128L144 192L72 192Z" fill="#334155"/>
    <path d="M112 128L144 64L192 128L144 192L112 128Z" fill="url(#prismRight)"/>
    <path d="M192 128C208 118 224 108 244 96" stroke="url(#beam)" stroke-width="14" stroke-linecap="round"/>
    <path d="M192 128C208 138 224 148 244 160" stroke="url(#beam)" stroke-width="14" stroke-linecap="round"/>
    <circle cx="192" cy="128" r="7" fill="#A3E635"/>
  </g>

  <g transform="translate(276 0)">
    <text x="0" y="160" fill="#111827" font-family="Segoe UI Variable, Segoe UI, Inter, Arial, sans-serif" font-size="88" font-weight="700" letter-spacing="-2">
      Prism<tspan fill="#22C55E">Split</tspan>
    </text>
    <path d="M2 188H314" stroke="#E5E7EB" stroke-width="4" stroke-linecap="round"/>
  </g>
</svg>
