<svg width="512" height="512" viewBox="0 0 512 512" fill="none" xmlns="http://www.w3.org/2000/svg" role="img" aria-label="PrismSplit mark">
  <defs>
    <linearGradient id="beam" x1="260" y1="256" x2="384" y2="256" gradientUnits="userSpaceOnUse">
      <stop offset="0" stop-color="#A3E635"/>
      <stop offset="1" stop-color="#22C55E"/>
    </linearGradient>
    <linearGradient id="prismTop" x1="192" y1="144" x2="288" y2="256" gradientUnits="userSpaceOnUse">
      <stop offset="0" stop-color="#4B5563"/>
      <stop offset="1" stop-color="#1F2937"/>
    </linearGradient>
    <linearGradient id="prismRight" x1="240" y1="256" x2="360" y2="256" gradientUnits="userSpaceOnUse">
      <stop offset="0" stop-color="#111827"/>
      <stop offset="1" stop-color="#374151"/>
    </linearGradient>
  </defs>

  <g transform="translate(64 64)">
    <path d="M64 256H160" stroke="#9CA3AF" stroke-width="18" stroke-linecap="round"/>
    <path d="M160 128H288L352 256L288 384H160L96 256L160 128Z" fill="#111827"/>
    <path d="M160 128L224 256L160 384L96 256L160 128Z" fill="#1F2937"/>
    <path d="M160 128H288L224 256L160 128Z" fill="url(#prismTop)"/>
    <path d="M160 384L224 256L288 384L160 384Z" fill="#334155"/>
    <path d="M224 256L288 128L352 256L288 384L224 256Z" fill="url(#prismRight)"/>
    <path d="M352 256C372 244 394 230 420 214" stroke="url(#beam)" stroke-width="18" stroke-linecap="round"/>
    <path d="M352 256C372 268 394 282 420 298" stroke="url(#beam)" stroke-width="18" stroke-linecap="round"/>
    <circle cx="352" cy="256" r="9" fill="#A3E635"/>
  </g>
</svg>
